<svg width="264" height="218" viewBox="0 0 264 218" fill="none" xmlns="http://www.w3.org/2000/svg"><g filter="url(#filter0_f_223_1276)"><rect x="69.3984" y="40.2789" width="107.622" height="113.374" transform="rotate(15 69.3984 40.2789)" fill="#17141D"/></g><rect x="0.612372" y="-0.353553" width="149" height="149" rx="39.5" transform="matrix(0.965926 0.258819 0.258819 -0.965926 80.1143 151.314)" fill="url(#paint0_linear_223_1276)" stroke="url(#paint1_angular_223_1276)"/><path d="M133.277 83.6209L139.147 61.7137L143.61 62.9095L141.197 71.9158L145.064 72.9521L147.477 63.9458L151.94 65.1415L146.07 87.0487L141.607 85.853L144.209 76.1435L140.341 75.1072L137.74 84.8167L133.277 83.6209ZM152.307 88.7199L154.633 80.0382L153.904 65.6677L158.096 66.791L158.384 75.1296L162.64 68.0085L166.697 69.0955L158.934 81.1904L156.607 89.8722L152.307 88.7199ZM162.699 91.5044L168.569 69.5972L174.113 71.0829C175.069 71.3389 175.931 71.6568 176.699 72.0365C177.467 72.4162 178.102 72.8955 178.603 73.4745C179.123 74.0583 179.447 74.7633 179.573 75.5895C179.722 76.4025 179.64 77.395 179.326 78.567C179.089 79.4505 178.76 80.174 178.339 80.7374C177.922 81.2828 177.431 81.673 176.865 81.908C176.3 82.143 175.658 82.2318 174.939 82.1744C175.752 82.5277 176.387 83.007 176.844 83.6124C177.3 84.2178 177.573 84.9287 177.663 85.7453C177.754 86.5619 177.659 87.493 177.379 88.5388C177.084 89.6387 176.684 90.5556 176.178 91.2897C175.69 92.0286 175.106 92.587 174.425 92.965C173.744 93.3429 172.97 93.5609 172.104 93.6187C171.243 93.6586 170.29 93.5384 169.244 93.2582L162.699 91.5044ZM168.002 89.5629L169.246 89.8962C170.364 90.1958 171.205 90.1216 171.77 89.6738C172.352 89.2308 172.793 88.4503 173.093 87.3324C173.325 86.467 173.409 85.7552 173.346 85.1972C173.288 84.6212 173.065 84.1556 172.677 83.8004C172.312 83.432 171.76 83.1488 171.02 82.9507L169.857 82.6391L168.002 89.5629ZM170.662 79.637L171.771 79.9341C172.546 80.1419 173.161 80.1907 173.616 80.0806C174.075 79.9525 174.437 79.6824 174.702 79.2703C174.99 78.845 175.224 78.2988 175.402 77.6316C175.581 76.9645 175.606 76.4012 175.478 75.9417C175.373 75.469 175.11 75.0797 174.69 74.7738C174.287 74.4727 173.735 74.228 173.031 74.0395L172.22 73.8221L170.662 79.637ZM178.229 95.6658L184.099 73.7586L189.779 75.2804C191.257 75.6766 192.474 76.1861 193.428 76.8089C194.405 77.4185 195.059 78.2219 195.391 79.2191C195.741 80.2211 195.715 81.4704 195.314 82.967C195.073 83.8685 194.776 84.6491 194.426 85.3088C194.098 85.9553 193.666 86.4869 193.129 86.9035C192.615 87.3069 191.965 87.5676 191.18 87.6857L191.347 99.1805L186.776 97.9558L186.92 87.356L185.351 86.9357L182.692 96.8615L178.229 95.6658ZM186.062 84.2852L187.36 84.633C188.081 84.8263 188.68 84.8612 189.158 84.738C189.636 84.6147 190.018 84.3404 190.306 83.9151C190.617 83.4766 190.866 82.9057 191.055 82.2025C191.325 81.1928 191.341 80.3758 191.103 79.7514C190.887 79.1139 190.275 78.6598 189.265 78.3893L187.75 77.9835L186.062 84.2852ZM194.051 99.9053L199.921 77.9981L204.357 79.1866L198.487 101.094L194.051 99.9053ZM201.842 101.993L207.712 80.0855L213.067 81.5204C214.924 82.018 216.301 82.6479 217.198 83.4101C218.119 84.1591 218.657 85.1055 218.815 86.2492C218.977 87.3749 218.845 88.731 218.42 90.3177L216.282 98.2963C215.848 99.919 215.274 101.195 214.561 102.125C213.848 103.055 212.91 103.635 211.747 103.864C210.607 104.08 209.126 103.945 207.305 103.457L201.842 101.993ZM207.138 100.078L208.084 100.332C208.914 100.554 209.533 100.585 209.944 100.424C210.377 100.25 210.706 99.9231 210.931 99.4424C211.162 98.9437 211.378 98.3157 211.581 97.5584L214.002 88.525C214.205 87.7677 214.303 87.1468 214.298 86.6622C214.315 86.1644 214.173 85.7591 213.87 85.4461C213.585 85.1379 213.047 84.8775 212.253 84.665L211.334 84.4186L207.138 100.078Z" fill="white"/><path d="M117.129 104.14L125.494 106.382L122.906 116.041L121.225 115.591L123.384 107.535L118.38 106.194L116.222 114.25L114.541 113.8L117.129 104.14ZM133.943 117.694C132.702 118.411 131.367 118.577 129.937 118.194C128.507 117.811 127.434 116.999 126.718 115.758C126.001 114.517 125.835 113.182 126.218 111.752C126.601 110.322 127.413 109.249 128.654 108.533C129.895 107.816 131.23 107.65 132.66 108.033C134.089 108.416 135.162 109.228 135.879 110.469C136.605 111.726 136.778 113.063 136.398 114.48C136.019 115.897 135.2 116.968 133.943 117.694ZM130.377 116.552C131.343 116.811 132.242 116.7 133.075 116.219C133.908 115.738 134.455 115.008 134.718 114.03C134.98 113.051 134.871 112.145 134.39 111.312C133.909 110.479 133.186 109.934 132.22 109.675C131.267 109.419 130.374 109.532 129.541 110.013C128.708 110.494 128.161 111.224 127.898 112.202C127.636 113.181 127.745 114.087 128.226 114.92C128.707 115.753 129.424 116.297 130.377 116.552ZM148.457 117.587C149.405 118.324 149.734 119.233 149.444 120.315C149.22 121.152 148.705 121.76 147.9 122.138C147.098 122.503 146.117 122.53 144.958 122.219C143.026 121.702 141.939 120.582 141.696 118.86L143.329 118.408C143.407 119.56 144.096 120.311 145.397 120.66C146.028 120.829 146.56 120.826 146.993 120.652C147.426 120.479 147.703 120.166 147.824 119.716C147.928 119.329 147.864 118.974 147.633 118.65C147.416 118.329 147.062 118.103 146.573 117.972L145.162 117.594L145.571 116.068L146.614 116.348C147.104 116.479 147.515 116.465 147.847 116.305C148.183 116.133 148.407 115.841 148.517 115.429C148.631 115.004 148.56 114.626 148.303 114.295C148.05 113.951 147.653 113.707 147.112 113.562C146.031 113.272 145.174 113.532 144.543 114.343L143.383 113.184C144.445 111.95 145.827 111.561 147.527 112.016C148.557 112.292 149.309 112.784 149.782 113.49C150.272 114.187 150.409 114.935 150.195 115.734C149.933 116.712 149.353 117.33 148.457 117.587ZM160.697 117.595L161.142 115.934L162.823 116.384L160.234 126.043L158.554 125.593L158.999 123.931C157.833 124.986 156.445 125.297 154.835 124.866C153.47 124.5 152.449 123.702 151.771 122.471C151.083 121.224 150.929 119.892 151.309 118.475C151.685 117.071 152.483 116.001 153.701 115.265C154.92 114.529 156.206 114.342 157.558 114.704C159.168 115.135 160.214 116.099 160.697 117.595ZM155.483 123.3C156.461 123.562 157.367 123.453 158.2 122.972C159.04 122.465 159.589 121.729 159.848 120.763C160.11 119.784 160.001 118.879 159.52 118.046C159.043 117.2 158.315 116.646 157.336 116.384C156.37 116.125 155.469 116.242 154.632 116.736C153.8 117.217 153.252 117.947 152.99 118.926C152.731 119.892 152.838 120.804 153.312 121.662C153.793 122.495 154.517 123.041 155.483 123.3ZM165.369 117.066L173.734 119.308L171.146 128.967L169.465 128.517L171.624 120.461L166.62 119.12L164.462 127.176L162.781 126.726L165.369 117.066ZM181.692 121.171C183.044 121.533 184.064 122.338 184.751 123.585C185.438 124.832 185.594 126.157 185.218 127.561C184.838 128.978 184.039 130.054 182.82 130.791C181.618 131.517 180.334 131.698 178.969 131.332C177.372 130.904 176.325 129.941 175.83 128.441L174.35 133.966L172.669 133.516L176.292 119.993L177.973 120.443L177.528 122.105C178.707 121.054 180.095 120.743 181.692 121.171ZM179.191 129.653C180.157 129.911 181.056 129.8 181.889 129.319C182.729 128.813 183.278 128.077 183.537 127.111C183.799 126.132 183.69 125.226 183.209 124.393C182.732 123.548 182.01 122.995 181.044 122.736C180.065 122.474 179.158 122.59 178.322 123.084C177.489 123.564 176.941 124.294 176.679 125.273C176.42 126.239 176.528 127.151 177.002 128.01C177.482 128.843 178.212 129.39 179.191 129.653ZM194.408 133.895C193.167 134.612 191.831 134.779 190.402 134.396C188.972 134.013 187.899 133.201 187.183 131.959C186.466 130.718 186.299 129.383 186.682 127.953C187.065 126.524 187.877 125.451 189.118 124.734C190.36 124.018 191.695 123.851 193.124 124.234C194.554 124.617 195.627 125.429 196.344 126.67C197.07 127.928 197.243 129.265 196.863 130.681C196.484 132.098 195.665 133.169 194.408 133.895ZM190.842 132.754C191.808 133.012 192.707 132.901 193.54 132.421C194.373 131.94 194.92 131.21 195.182 130.231C195.445 129.252 195.335 128.346 194.855 127.514C194.374 126.681 193.65 126.135 192.684 125.876C191.731 125.621 190.838 125.734 190.006 126.214C189.173 126.695 188.625 127.425 188.363 128.404C188.101 129.383 188.21 130.288 188.691 131.121C189.172 131.954 189.889 132.498 190.842 132.754ZM202.023 137.51C200.568 137.12 199.486 136.312 198.779 135.088C198.076 133.85 197.917 132.51 198.304 131.067C198.69 129.625 199.496 128.55 200.72 127.843C201.949 127.123 203.29 126.958 204.746 127.348C205.699 127.603 206.493 128.065 207.129 128.732C207.768 129.386 208.171 130.15 208.337 131.023L206.709 131.456C206.603 130.876 206.333 130.362 205.901 129.914C205.481 129.471 204.95 129.163 204.306 128.99C203.34 128.731 202.44 128.842 201.608 129.323C200.784 129.82 200.243 130.552 199.984 131.518C199.729 132.471 199.834 133.368 200.298 134.211C200.779 135.044 201.502 135.589 202.468 135.848C203.112 136.021 203.731 136.028 204.326 135.87C204.924 135.699 205.427 135.392 205.836 134.949L207.043 136.163C206.411 136.822 205.648 137.273 204.754 137.517C203.861 137.76 202.95 137.758 202.023 137.51ZM212.257 137.746L217.068 130.919L218.865 131.4L212.175 140.603C211.47 141.587 210.668 142.262 209.769 142.629C208.867 143.008 207.948 143.038 207.012 142.718L207.431 141.153C208.579 141.558 209.621 141.147 210.557 139.92L210.804 139.614L209.206 128.812L210.983 129.288L212.257 137.746Z" fill="#ACACAC"/><defs><filter id="filter0_f_223_1276" x="0.0546875" y="0.278931" width="213.299" height="217.366" filterUnits="userSpaceOnUse" color-interpolation-filters="sRGB"><feFlood flood-opacity="0" result="BackgroundImageFix"/><feBlend mode="normal" in="SourceGraphic" in2="BackgroundImageFix" result="shape"/><feGaussianBlur stdDeviation="20" result="effect1_foregroundBlur_223_1276"/></filter><linearGradient id="paint0_linear_223_1276" x1="0" y1="0" x2="139.453" y2="150" gradientUnits="userSpaceOnUse"><stop stop-color="#201D30"/><stop offset="1" stop-color="#474553"/></linearGradient><radialGradient id="paint1_angular_223_1276" cx="0" cy="0" r="1" gradientUnits="userSpaceOnUse" gradientTransform="translate(75 75) rotate(90) scale(75)"><stop offset="0.107236" stop-color="white" stop-opacity="0.55"/><stop offset="0.340387" stop-color="white" stop-opacity="0"/><stop offset="0.596259" stop-color="white" stop-opacity="0"/><stop offset="0.736981" stop-color="white" stop-opacity="0"/><stop offset="0.903035" stop-color="white" stop-opacity="0.54"/><stop offset="0.99949" stop-color="white" stop-opacity="0.08"/></radialGradient></defs></svg>