<svg width="264" height="218" viewBox="0 0 264 218" fill="none" xmlns="http://www.w3.org/2000/svg"><g filter="url(#filter0_f_475_440)"><rect x="69.3984" y="40.2789" width="107.622" height="113.374" transform="rotate(15 69.3984 40.2789)" fill="#17141D"/></g><rect x="0.612372" y="-0.353553" width="149" height="149" rx="39.5" transform="matrix(0.965926 0.258819 0.258819 -0.965926 80.2569 151.314)" fill="url(#paint0_linear_475_440)" stroke="url(#paint1_angular_475_440)"/><path d="M132.939 83.4914L138.809 61.5842L143.272 62.7799L140.859 71.7862L144.726 72.8225L147.14 63.8162L151.602 65.012L145.732 86.9192L141.27 85.7234L143.871 76.0139L140.004 74.9776L137.402 84.6871L132.939 83.4914ZM151.969 88.5904L154.295 79.9086L153.566 65.5381L157.758 66.6614L158.046 75L162.302 67.8789L166.359 68.9659L158.596 81.0609L156.269 89.7426L151.969 88.5904ZM162.361 91.3749L168.231 69.4677L173.776 70.9533C174.731 71.2094 175.593 71.5272 176.361 71.9069C177.129 72.2866 177.764 72.7659 178.266 73.3449C178.786 73.9287 179.109 74.6337 179.235 75.4599C179.385 76.2729 179.302 77.2654 178.988 78.4374C178.751 79.3209 178.422 80.0444 178.001 80.6078C177.584 81.1532 177.093 81.5434 176.528 81.7784C175.962 82.0134 175.32 82.1022 174.601 82.0449C175.415 82.3982 176.049 82.8775 176.506 83.4829C176.962 84.0882 177.235 84.7992 177.326 85.6157C177.416 86.4323 177.321 87.3635 177.041 88.4092C176.746 89.5091 176.346 90.4261 175.84 91.1602C175.352 91.8991 174.768 92.4575 174.087 92.8354C173.406 93.2134 172.632 93.4313 171.766 93.4892C170.905 93.529 169.952 93.4089 168.906 93.1286L162.361 91.3749ZM167.664 89.4333L168.908 89.7667C170.026 90.0662 170.868 89.9921 171.432 89.5442C172.015 89.1012 172.456 88.3208 172.755 87.2029C172.987 86.3374 173.071 85.6257 173.008 85.0677C172.95 84.4916 172.727 84.026 172.339 83.6709C171.974 83.3025 171.422 83.0192 170.683 82.8212L169.52 82.5095L167.664 89.4333ZM170.324 79.5074L171.433 79.8046C172.208 80.0123 172.823 80.0611 173.278 79.9511C173.737 79.823 174.1 79.5528 174.365 79.1407C174.652 78.7154 174.886 78.1692 175.065 77.5021C175.243 76.8349 175.269 76.2716 175.14 75.8121C175.035 75.3395 174.772 74.9502 174.352 74.6442C173.949 74.3432 173.397 74.0984 172.693 73.91L171.882 73.6926L170.324 79.5074ZM177.891 95.5362L183.761 73.629L189.441 75.1509C190.92 75.547 192.136 76.0565 193.09 76.6793C194.067 77.2889 194.721 78.0923 195.053 79.0895C195.403 80.0916 195.377 81.3408 194.976 82.8374C194.735 83.7389 194.439 84.5195 194.088 85.1793C193.76 85.8258 193.328 86.3573 192.791 86.7739C192.277 87.1773 191.627 87.4381 190.842 87.5562L191.009 99.051L186.438 97.8262L186.582 87.2264L185.014 86.8061L182.354 96.732L177.891 95.5362ZM185.724 84.1556L187.022 84.5034C187.743 84.6967 188.343 84.7317 188.82 84.6084C189.298 84.4851 189.68 84.2108 189.968 83.7855C190.279 83.347 190.529 82.7762 190.717 82.073C190.988 81.0632 191.004 80.2462 190.765 79.6219C190.549 78.9843 189.937 78.5303 188.927 78.2597L187.412 77.8539L185.724 84.1556ZM193.713 99.7757L199.583 77.8685L204.019 79.057L198.149 100.964L193.713 99.7757ZM201.504 101.863L207.374 79.9559L212.729 81.3908C214.586 81.8884 215.963 82.5184 216.861 83.2806C217.781 84.0296 218.319 84.9759 218.477 86.1196C218.639 87.2453 218.508 88.6015 218.082 90.1882L215.945 98.1667C215.51 99.7895 214.936 101.066 214.223 101.996C213.51 102.925 212.572 103.505 211.409 103.735C210.269 103.951 208.788 103.815 206.967 103.327L201.504 101.863ZM206.8 99.9486L207.746 100.202C208.576 100.424 209.196 100.455 209.606 100.295C210.039 100.121 210.368 99.7935 210.594 99.3128C210.824 98.8141 211.04 98.1861 211.243 97.4288L213.664 88.3955C213.867 87.6382 213.965 87.0172 213.96 86.5327C213.977 86.0349 213.835 85.6295 213.532 85.3165C213.248 85.0083 212.709 84.748 211.915 84.5354L210.996 84.289L206.8 99.9486Z" fill="white"/><path d="M114.989 109.015L116.361 103.896L118.042 104.346L115.454 114.006L113.773 113.555L114.146 112.164C113.183 113.08 111.993 113.347 110.576 112.968C109.443 112.664 108.63 112.067 108.137 111.175C107.648 110.271 107.567 109.208 107.895 107.984L109.484 102.053L111.165 102.504L109.601 108.338C109.394 109.111 109.444 109.773 109.752 110.325C110.06 110.876 110.587 111.252 111.334 111.452C112.197 111.684 112.95 111.603 113.594 111.209C114.241 110.803 114.706 110.072 114.989 109.015ZM126 106.21C127.352 106.572 128.372 107.377 129.059 108.624C129.747 109.871 129.902 111.196 129.526 112.6C129.146 114.017 128.347 115.093 127.129 115.829C125.926 116.556 124.642 116.737 123.277 116.371C121.68 115.943 120.634 114.98 120.138 113.48L118.658 119.005L116.977 118.555L120.601 105.032L122.281 105.482L121.836 107.144C123.015 106.093 124.403 105.782 126 106.21ZM123.499 114.691C124.465 114.95 125.365 114.839 126.198 114.358C127.037 113.852 127.587 113.116 127.845 112.15C128.108 111.171 127.998 110.265 127.518 109.432C127.04 108.586 126.319 108.034 125.353 107.775C124.374 107.513 123.466 107.629 122.63 108.123C121.797 108.603 121.25 109.333 120.987 110.312C120.728 111.278 120.836 112.19 121.31 113.049C121.791 113.882 122.521 114.429 123.499 114.691ZM138.716 118.934C137.475 119.651 136.14 119.818 134.71 119.435C133.28 119.052 132.207 118.239 131.491 116.998C130.774 115.757 130.608 114.422 130.991 112.992C131.374 111.563 132.186 110.49 133.427 109.773C134.668 109.057 136.003 108.89 137.433 109.273C138.862 109.656 139.935 110.468 140.652 111.709C141.378 112.967 141.551 114.304 141.172 115.72C140.792 117.137 139.973 118.208 138.716 118.934ZM135.15 117.792C136.116 118.051 137.015 117.94 137.848 117.459C138.681 116.979 139.229 116.249 139.491 115.27C139.753 114.291 139.644 113.385 139.163 112.553C138.682 111.72 137.959 111.174 136.993 110.915C136.04 110.66 135.147 110.772 134.314 111.253C133.481 111.734 132.934 112.464 132.671 113.443C132.409 114.422 132.518 115.327 132.999 116.16C133.48 116.993 134.197 117.537 135.15 117.792ZM149.325 112.459C150.458 112.763 151.269 113.367 151.759 114.271C152.251 115.162 152.334 116.22 152.006 117.443L150.417 123.374L148.736 122.924L150.299 117.089C150.507 116.317 150.456 115.654 150.149 115.103C149.841 114.551 149.314 114.175 148.567 113.975C147.704 113.744 146.949 113.831 146.301 114.238C145.658 114.631 145.194 115.356 144.911 116.412L143.54 121.531L141.859 121.081L144.447 111.422L146.128 111.872L145.755 113.263C146.718 112.348 147.908 112.08 149.325 112.459ZM161.862 116.088L161.427 117.711C162.302 116.661 163.467 116.332 164.922 116.722L164.451 118.48C163.637 118.22 162.87 118.249 162.15 118.567C161.43 118.885 160.928 119.572 160.645 120.628L159.274 125.747L157.593 125.297L160.181 115.638L161.862 116.088ZM173.763 125.282L165.669 123.113C165.609 124.008 165.822 124.782 166.309 125.438C166.8 126.08 167.508 126.525 168.436 126.773C169.711 127.115 170.764 126.893 171.595 126.109L172.808 127.303C171.465 128.503 169.853 128.851 167.973 128.347C166.453 127.94 165.331 127.129 164.608 125.913C163.917 124.679 163.767 123.335 164.157 121.879C164.55 120.411 165.345 119.326 166.54 118.625C167.739 117.911 169.086 117.754 170.579 118.155C171.996 118.534 173.014 119.345 173.634 120.588C174.273 121.808 174.403 123.127 174.023 124.544C173.958 124.788 173.871 125.034 173.763 125.282ZM170.155 119.739C169.266 119.501 168.452 119.552 167.712 119.892C166.985 120.235 166.435 120.819 166.062 121.644L172.515 123.373C172.611 122.447 172.442 121.663 172.006 121.022C171.571 120.38 170.954 119.953 170.155 119.739ZM184.788 124.012L185.234 122.35L186.914 122.801L183.291 136.324L181.61 135.873L183.09 130.348C181.925 131.402 180.537 131.714 178.927 131.282C177.562 130.917 176.54 130.118 175.862 128.888C175.175 127.641 175.021 126.309 175.401 124.892C175.777 123.488 176.574 122.418 177.793 121.682C179.012 120.946 180.297 120.759 181.65 121.121C183.259 121.552 184.306 122.516 184.788 124.012ZM179.574 129.717C180.553 129.979 181.459 129.87 182.292 129.389C183.131 128.882 183.681 128.146 183.939 127.18C184.202 126.201 184.092 125.295 183.612 124.463C183.134 123.617 182.406 123.063 181.427 122.801C180.461 122.542 179.56 122.659 178.724 123.153C177.891 123.634 177.344 124.364 177.081 125.342C176.823 126.308 176.93 127.221 177.404 128.079C177.885 128.912 178.608 129.458 179.574 129.717ZM194.754 130.388L196.126 125.269L197.806 125.719L195.218 135.378L193.537 134.928L193.91 133.537C192.947 134.452 191.757 134.72 190.34 134.341C189.207 134.037 188.394 133.44 187.901 132.548C187.412 131.644 187.331 130.58 187.659 129.357L189.248 123.426L190.929 123.876L189.366 129.711C189.159 130.483 189.209 131.146 189.517 131.697C189.824 132.249 190.352 132.625 191.099 132.825C191.961 133.056 192.715 132.975 193.358 132.582C194.006 132.176 194.471 131.444 194.754 130.388ZM208.137 134.492L200.042 132.323C199.982 133.218 200.195 133.993 200.682 134.648C201.173 135.29 201.882 135.735 202.809 135.984C204.084 136.325 205.137 136.104 205.969 135.319L207.181 136.513C205.838 137.713 204.226 138.061 202.346 137.558C200.826 137.15 199.705 136.339 198.981 135.124C198.29 133.89 198.14 132.545 198.53 131.09C198.923 129.621 199.718 128.537 200.913 127.836C202.112 127.122 203.459 126.965 204.953 127.365C206.37 127.745 207.388 128.556 208.007 129.798C208.646 131.019 208.776 132.337 208.397 133.754C208.331 133.999 208.244 134.245 208.137 134.492ZM204.528 128.949C203.64 128.711 202.825 128.762 202.086 129.102C201.359 129.446 200.809 130.03 200.436 130.855L206.888 132.584C206.985 131.657 206.815 130.873 206.379 130.232C205.944 129.591 205.327 129.163 204.528 128.949ZM212.001 132.318C211.835 132.936 212.343 133.59 213.525 134.279C213.974 134.51 214.344 134.726 214.635 134.929C214.942 135.121 215.259 135.379 215.587 135.701C215.928 136.027 216.153 136.398 216.262 136.814C216.372 137.23 216.361 137.682 216.23 138.172C215.995 139.048 215.466 139.658 214.642 140.003C213.817 140.348 212.884 140.381 211.841 140.102C210.913 139.853 210.162 139.438 209.586 138.856C209.027 138.264 208.699 137.583 208.602 136.811L210.273 136.369C210.304 136.874 210.495 137.319 210.848 137.703C211.2 138.087 211.673 138.359 212.265 138.518C212.845 138.673 213.338 138.688 213.744 138.562C214.15 138.436 214.412 138.154 214.53 137.716C214.706 137.059 214.196 136.412 213 135.774C212.606 135.544 212.308 135.368 212.107 135.245C211.905 135.122 211.633 134.925 211.292 134.654C210.963 134.386 210.726 134.137 210.582 133.905C210.44 133.66 210.327 133.36 210.243 133.006C210.174 132.643 210.192 132.268 210.295 131.882C210.52 131.044 211.026 130.442 211.815 130.073C212.617 129.708 213.507 129.657 214.486 129.919C215.272 130.13 215.919 130.497 216.428 131.019C216.953 131.533 217.285 132.146 217.425 132.86L215.803 133.274C215.676 132.357 215.097 131.76 214.067 131.484C213.577 131.353 213.134 131.359 212.737 131.501C212.353 131.646 212.108 131.919 212.001 132.318ZM224.976 132.999L224.541 134.622L221.972 133.934L220.569 139.169C220.441 139.645 220.44 140.011 220.565 140.265C220.706 140.51 220.969 140.691 221.352 140.807C221.738 140.911 222.218 141.026 222.791 141.152L222.388 142.659C220.855 142.455 219.806 142.043 219.241 141.422C218.688 140.805 218.571 139.903 218.888 138.719L220.291 133.483L218.378 132.971L218.813 131.348L220.726 131.86L221.316 129.658L223.131 129.606L222.407 132.311L224.976 132.999Z" fill="#ACACAC"/><defs><filter id="filter0_f_475_440" x="0.0546875" y="0.278931" width="213.301" height="217.366" filterUnits="userSpaceOnUse" color-interpolation-filters="sRGB"><feFlood flood-opacity="0" result="BackgroundImageFix"/><feBlend mode="normal" in="SourceGraphic" in2="BackgroundImageFix" result="shape"/><feGaussianBlur stdDeviation="20" result="effect1_foregroundBlur_475_440"/></filter><linearGradient id="paint0_linear_475_440" x1="0" y1="0" x2="139.453" y2="150" gradientUnits="userSpaceOnUse"><stop stop-color="#201D30"/><stop offset="1" stop-color="#474553"/></linearGradient><radialGradient id="paint1_angular_475_440" cx="0" cy="0" r="1" gradientUnits="userSpaceOnUse" gradientTransform="translate(75 75) rotate(90) scale(75)"><stop offset="0.107236" stop-color="white" stop-opacity="0.55"/><stop offset="0.340387" stop-color="white" stop-opacity="0"/><stop offset="0.596259" stop-color="white" stop-opacity="0"/><stop offset="0.736981" stop-color="white" stop-opacity="0"/><stop offset="0.903035" stop-color="white" stop-opacity="0.54"/><stop offset="0.99949" stop-color="white" stop-opacity="0.08"/></radialGradient></defs></svg>