<svg width="246" height="232" viewBox="0 0 246 232" fill="none" xmlns="http://www.w3.org/2000/svg"><g filter="url(#filter0_f_223_1275)"><rect x="75" y="66.4197" width="101" height="129.041" transform="rotate(-15 75 66.4197)" fill="#17141D"/></g><rect x="0.353553" y="-0.612372" width="149" height="149" rx="39.5" transform="matrix(0.965926 -0.258819 -0.258819 -0.965926 39.6465 222.878)" fill="url(#paint0_linear_223_1275)" stroke="url(#paint1_angular_223_1275)"/><path d="M78.2253 131.19C76.6026 131.624 75.2313 131.663 74.1114 131.306C73.0095 130.945 72.1243 130.273 71.4558 129.293C70.7825 128.295 70.2525 127.074 69.866 125.632L67.7572 117.761C67.3514 116.247 67.1928 114.898 67.2816 113.715C67.3655 112.513 67.7966 111.49 68.5747 110.643C69.3709 109.792 70.5804 109.149 72.2031 108.714C73.7718 108.294 75.0679 108.227 76.0916 108.513C77.1332 108.795 77.9623 109.365 78.579 110.224C79.2137 111.078 79.7002 112.136 80.0384 113.398L80.5311 115.237L76.2038 116.397L75.653 114.341C75.5178 113.836 75.3651 113.375 75.1951 112.957C75.0202 112.52 74.7703 112.201 74.4454 111.998C74.1337 111.772 73.6803 111.739 73.0853 111.899C72.4903 112.058 72.0962 112.318 71.9031 112.679C71.7099 113.04 71.6401 113.465 71.6936 113.953C71.7422 114.423 71.8414 114.937 71.9912 115.496L74.6581 125.449C74.8224 126.062 75.0124 126.591 75.2281 127.036C75.4571 127.458 75.7406 127.758 76.0787 127.938C76.43 128.096 76.8671 128.104 77.39 127.964C77.967 127.809 78.3364 127.565 78.4984 127.232C78.6735 126.876 78.7253 126.456 78.6538 125.973C78.6003 125.485 78.5035 124.979 78.3634 124.456L77.7909 122.32L82.1182 121.16L82.6038 122.972C82.9468 124.253 83.0709 125.437 82.976 126.525C82.8762 127.595 82.4619 128.537 81.733 129.351C80.9993 130.147 79.8301 130.76 78.2253 131.19ZM87.0095 128.517L81.1395 106.61L88.0903 104.747C89.4065 104.395 90.547 104.36 91.5117 104.642C92.4715 104.907 93.2754 105.455 93.9233 106.286C94.5892 107.113 95.101 108.193 95.4585 109.527C95.8788 111.096 95.9369 112.394 95.6327 113.423C95.3465 114.447 94.7944 115.271 93.9763 115.896C93.1534 116.503 92.1469 116.966 90.9569 117.285L88.9284 117.828L91.4721 127.321L87.0095 128.517ZM88.0878 114.691L89.6564 114.271C90.3055 114.097 90.7748 113.865 91.0642 113.574C91.3669 113.261 91.5209 112.863 91.5263 112.378C91.5318 111.894 91.4403 111.3 91.2519 110.596C91.0731 109.929 90.8692 109.385 90.6403 108.963C90.4293 108.536 90.1188 108.243 89.7085 108.082C89.2983 107.922 88.7236 107.94 87.9843 108.138L86.4427 108.551L88.0878 114.691ZM99.6355 125.134L98.0117 102.089L102.961 100.763L113.05 121.539L108.912 122.648L106.838 118.044L103.376 118.972L103.828 124.011L99.6355 125.134ZM103.05 116.131L105.673 115.429L101.978 106.94L103.05 116.131Z" fill="white"/><path d="M72.7812 163.657C73.0676 164.726 72.9528 165.688 72.4368 166.544C71.9208 167.4 71.1279 168.048 70.0583 168.486L70.519 170.205L69.3019 170.532L68.8464 168.832C67.7825 169.034 66.8098 168.984 65.9282 168.682C65.0466 168.38 64.3245 167.848 63.7619 167.088L65.0693 165.785C65.841 166.862 66.943 167.292 68.3754 167.074L67.1227 162.398C65.9665 162.308 65.0155 162.107 64.2696 161.796C63.351 161.408 62.7399 160.646 62.4362 159.513C62.1567 158.47 62.2766 157.527 62.7961 156.684C63.325 155.824 64.0925 155.211 65.0987 154.845L64.6432 153.145L65.8603 152.819L66.3209 154.538C68.0152 154.319 69.4056 154.871 70.4919 156.195L69.2128 157.449C68.5874 156.609 67.7805 156.224 66.792 156.296L67.9826 160.739C68.6173 160.79 69.1392 160.857 69.5481 160.941C69.9862 161.031 70.43 161.167 70.8794 161.35C71.8332 161.716 72.4671 162.485 72.7812 163.657ZM64.2135 159.037C64.3412 159.513 64.5898 159.875 64.9594 160.121C65.3385 160.35 65.8991 160.511 66.6413 160.602L65.5698 156.603C65.0109 156.835 64.6106 157.17 64.369 157.608C64.1238 158.033 64.072 158.509 64.2135 159.037ZM68.4588 162.517L69.5821 166.709C70.1632 166.456 70.5794 166.103 70.8305 165.65C71.0816 165.196 71.1347 164.698 70.9897 164.158C70.8517 163.642 70.5867 163.272 70.1948 163.045C69.8123 162.803 69.2336 162.627 68.4588 162.517ZM83.849 164.563L75.117 166.903L74.7236 165.435L78.1908 159.288C79.1242 157.671 79.4684 156.406 79.2234 155.491C79.0232 154.744 78.6344 154.22 78.0568 153.92C77.4887 153.602 76.8634 153.535 76.1808 153.718C74.9058 154.06 74.1407 154.914 73.8855 156.28L72.1406 155.795C72.3215 154.821 72.725 154.009 73.3512 153.358C73.974 152.695 74.7555 152.237 75.6956 151.985C76.8419 151.678 77.9272 151.787 78.9516 152.313C79.9923 152.849 80.6801 153.741 81.0148 154.99C81.3806 156.356 80.9742 158.059 79.7957 160.1L77.2591 164.465L83.3831 162.824L83.849 164.563ZM85.4933 155.281L87.4638 154.753C88.7388 154.412 89.916 154.503 90.9954 155.029C92.0876 155.55 92.8098 156.468 93.1618 157.782C93.5172 159.108 93.3442 160.266 92.6429 161.254C91.932 162.259 90.9391 162.932 89.6641 163.274C88.608 163.557 87.607 163.556 86.661 163.271C85.7245 162.97 84.9792 162.404 84.4251 161.572L85.7183 160.294C86.0712 160.889 86.5518 161.292 87.1601 161.502C87.7684 161.712 88.4461 161.716 89.1931 161.516C90.056 161.285 90.6863 160.881 91.0841 160.305C91.4914 159.713 91.5915 159.031 91.3845 158.258C91.1774 157.485 90.7495 156.944 90.1006 156.635C89.4647 156.322 88.7282 156.278 87.891 156.502L84.066 157.527L82.6892 150.38L90.0882 148.397L90.5385 150.078L84.7623 151.626L85.4933 155.281ZM102.076 154.192L95.0246 156.082L94.5898 154.459L101.641 152.57L102.076 154.192ZM113.871 152.647C114.157 153.716 114.042 154.678 113.526 155.534C113.01 156.39 112.218 157.038 111.148 157.476L111.609 159.196L110.392 159.522L109.936 157.822C108.872 158.024 107.899 157.974 107.018 157.672C106.136 157.37 105.414 156.838 104.851 156.078L106.159 154.775C106.931 155.852 108.033 156.282 109.465 156.064L108.212 151.389C107.056 151.298 106.105 151.097 105.359 150.786C104.441 150.398 103.829 149.637 103.526 148.503C103.246 147.46 103.366 146.517 103.886 145.674C104.415 144.814 105.182 144.201 106.188 143.835L105.733 142.135L106.95 141.809L107.411 143.528C109.105 143.309 110.495 143.861 111.581 145.185L110.302 146.439C109.677 145.599 108.87 145.215 107.882 145.286L109.072 149.729C109.707 149.78 110.229 149.847 110.638 149.931C111.076 150.021 111.52 150.157 111.969 150.341C112.923 150.706 113.557 151.475 113.871 152.647ZM105.303 148.027C105.431 148.503 105.679 148.865 106.049 149.111C106.428 149.341 106.989 149.501 107.731 149.592L106.659 145.593C106.1 145.826 105.7 146.161 105.459 146.598C105.213 147.023 105.162 147.499 105.303 148.027ZM109.548 151.507L110.672 155.699C111.253 155.447 111.669 155.093 111.92 154.64C112.171 154.186 112.224 153.689 112.079 153.148C111.941 152.632 111.676 152.262 111.284 152.035C110.902 151.793 110.323 151.617 109.548 151.507ZM116.546 146.961L118.517 146.433C119.792 146.091 120.969 146.183 122.048 146.708C123.141 147.23 123.863 148.147 124.215 149.461C124.57 150.788 124.397 151.945 123.696 152.934C122.985 153.939 121.992 154.612 120.717 154.954C119.661 155.236 118.66 155.236 117.714 154.951C116.778 154.649 116.032 154.083 115.478 153.251L116.771 151.973C117.124 152.569 117.605 152.972 118.213 153.181C118.821 153.391 119.499 153.396 120.246 153.196C121.109 152.964 121.739 152.561 122.137 151.985C122.544 151.393 122.645 150.71 122.437 149.937C122.23 149.165 121.802 148.624 121.154 148.314C120.518 148.002 119.781 147.957 118.944 148.182L115.119 149.207L113.742 142.059L121.141 140.077L121.592 141.758L115.815 143.305L116.546 146.961ZM135.145 149.038C134.586 150.554 133.475 151.535 131.813 151.98C130.152 152.425 128.7 152.131 127.457 151.098C126.197 150.055 125.284 148.477 124.718 146.365C124.153 144.253 124.154 142.431 124.724 140.898C125.283 139.381 126.394 138.4 128.055 137.955C129.717 137.51 131.169 137.804 132.412 138.837C133.672 139.88 134.585 141.458 135.15 143.57C135.716 145.682 135.715 147.505 135.145 149.038ZM126.515 145.884C126.964 147.558 127.607 148.773 128.444 149.529C129.282 150.284 130.248 150.516 131.342 150.222C132.437 149.929 133.158 149.246 133.506 148.173C133.866 147.096 133.822 145.72 133.373 144.046C132.925 142.372 132.275 141.159 131.425 140.406C130.584 139.638 129.616 139.4 128.521 139.694C127.427 139.987 126.706 140.67 126.358 141.743C126.011 142.817 126.063 144.197 126.515 145.884Z" fill="#ACACAC"/><defs><filter id="filter0_f_223_1275" x="35" y="0.278976" width="210.957" height="230.784" filterUnits="userSpaceOnUse" color-interpolation-filters="sRGB"><feFlood flood-opacity="0" result="BackgroundImageFix"/><feBlend mode="normal" in="SourceGraphic" in2="BackgroundImageFix" result="shape"/><feGaussianBlur stdDeviation="20" result="effect1_foregroundBlur_223_1275"/></filter><linearGradient id="paint0_linear_223_1275" x1="0" y1="0" x2="139.453" y2="150" gradientUnits="userSpaceOnUse"><stop stop-color="#201D30"/><stop offset="1" stop-color="#474553"/></linearGradient><radialGradient id="paint1_angular_223_1275" cx="0" cy="0" r="1" gradientUnits="userSpaceOnUse" gradientTransform="translate(75 75) rotate(90) scale(75)"><stop offset="0.107236" stop-color="white" stop-opacity="0.55"/><stop offset="0.340387" stop-color="white" stop-opacity="0"/><stop offset="0.596259" stop-color="white" stop-opacity="0"/><stop offset="0.736981" stop-color="white" stop-opacity="0"/><stop offset="0.903035" stop-color="white" stop-opacity="0.54"/><stop offset="0.99949" stop-color="white" stop-opacity="0.08"/></radialGradient></defs></svg>