<svg width="246" height="232" viewBox="0 0 246 232" fill="none" xmlns="http://www.w3.org/2000/svg"><g filter="url(#filter0_f_475_439)"><rect x="75" y="66.4197" width="101" height="129.041" transform="rotate(-15 75 66.4197)" fill="#17141D"/></g><rect x="0.353553" y="-0.612372" width="149" height="149" rx="39.5" transform="matrix(0.965926 -0.258819 -0.258819 -0.965926 39.6504 222.878)" fill="url(#paint0_linear_475_439)" stroke="url(#paint1_angular_475_439)"/><path d="M78.2253 131.19C76.6026 131.624 75.2313 131.663 74.1114 131.306C73.0095 130.945 72.1243 130.273 71.4558 129.293C70.7825 128.295 70.2525 127.074 69.866 125.632L67.7572 117.761C67.3514 116.247 67.1928 114.898 67.2816 113.715C67.3655 112.513 67.7966 111.49 68.5747 110.643C69.3709 109.792 70.5804 109.149 72.2031 108.714C73.7718 108.294 75.0679 108.227 76.0916 108.513C77.1332 108.795 77.9623 109.365 78.579 110.224C79.2137 111.078 79.7002 112.136 80.0384 113.398L80.5311 115.237L76.2038 116.397L75.653 114.341C75.5178 113.836 75.3651 113.375 75.1951 112.957C75.0202 112.52 74.7703 112.201 74.4454 111.998C74.1337 111.772 73.6803 111.739 73.0853 111.899C72.4903 112.058 72.0962 112.318 71.9031 112.679C71.7099 113.04 71.6401 113.465 71.6936 113.953C71.7422 114.423 71.8414 114.937 71.9912 115.496L74.6581 125.449C74.8224 126.062 75.0124 126.591 75.2281 127.036C75.4571 127.458 75.7406 127.758 76.0787 127.938C76.43 128.096 76.8671 128.104 77.39 127.964C77.967 127.809 78.3364 127.565 78.4984 127.232C78.6735 126.876 78.7253 126.456 78.6538 125.973C78.6003 125.485 78.5035 124.979 78.3634 124.456L77.7909 122.32L82.1182 121.16L82.6038 122.972C82.9468 124.253 83.0709 125.437 82.976 126.525C82.8762 127.595 82.4619 128.537 81.733 129.351C80.9993 130.147 79.8301 130.76 78.2253 131.19ZM87.0095 128.517L81.1395 106.61L88.0903 104.747C89.4065 104.395 90.547 104.36 91.5117 104.642C92.4715 104.907 93.2754 105.455 93.9233 106.286C94.5892 107.113 95.101 108.193 95.4585 109.527C95.8788 111.096 95.9369 112.394 95.6327 113.423C95.3465 114.447 94.7944 115.271 93.9763 115.896C93.1534 116.503 92.1469 116.966 90.9569 117.285L88.9284 117.828L91.4721 127.321L87.0095 128.517ZM88.0878 114.691L89.6564 114.271C90.3055 114.097 90.7748 113.865 91.0642 113.574C91.3669 113.261 91.5209 112.863 91.5263 112.378C91.5318 111.894 91.4403 111.3 91.2519 110.596C91.0731 109.929 90.8692 109.385 90.6403 108.963C90.4293 108.536 90.1188 108.243 89.7085 108.082C89.2983 107.922 88.7236 107.94 87.9843 108.138L86.4427 108.551L88.0878 114.691ZM99.6355 125.134L98.0117 102.089L102.961 100.763L113.05 121.539L108.912 122.648L106.838 118.044L103.376 118.972L103.828 124.011L99.6355 125.134ZM103.05 116.131L105.673 115.429L101.978 106.94L103.05 116.131Z" fill="white"/><path d="M72.7831 163.657C73.0695 164.726 72.9547 165.688 72.4387 166.544C71.9227 167.4 71.1299 168.048 70.0602 168.486L70.5209 170.205L69.3039 170.532L68.8484 168.832C67.7845 169.034 66.8117 168.984 65.9301 168.682C65.0486 168.38 64.3265 167.848 63.7639 167.088L65.0712 165.785C65.8429 166.862 66.945 167.292 68.3773 167.074L67.1246 162.398C65.9685 162.308 65.0175 162.107 64.2716 161.796C63.353 161.408 62.7418 160.646 62.4381 159.513C62.1586 158.47 62.2786 157.527 62.7981 156.684C63.327 155.824 64.0945 155.211 65.1007 154.845L64.6451 153.145L65.8622 152.819L66.3229 154.538C68.0172 154.319 69.4075 154.871 70.4939 156.195L69.2148 157.449C68.5894 156.609 67.7824 156.224 66.794 156.296L67.9845 160.739C68.6193 160.79 69.1411 160.857 69.5501 160.941C69.9882 161.031 70.432 161.167 70.8814 161.35C71.8352 161.716 72.4691 162.485 72.7831 163.657ZM64.2155 159.037C64.3431 159.513 64.5918 159.875 64.9614 160.121C65.3404 160.35 65.901 160.511 66.6432 160.602L65.5717 156.603C65.0129 156.835 64.6126 157.17 64.3709 157.608C64.1258 158.033 64.074 158.509 64.2155 159.037ZM68.4607 162.517L69.584 166.709C70.1652 166.456 70.5813 166.103 70.8324 165.65C71.0835 165.196 71.1366 164.698 70.9917 164.158C70.8536 163.642 70.5887 163.272 70.1967 163.045C69.8142 162.803 69.2356 162.627 68.4607 162.517ZM83.8509 164.563L75.1189 166.903L74.7255 165.435L78.1928 159.288C79.1261 157.671 79.4703 156.406 79.2253 155.491C79.0252 154.744 78.6363 154.22 78.0588 153.92C77.4907 153.602 76.8654 153.535 76.1828 153.718C74.9077 154.06 74.1426 154.914 73.8875 156.28L72.1425 155.795C72.3234 154.821 72.727 154.009 73.3532 153.358C73.9759 152.695 74.7574 152.237 75.6976 151.985C76.8438 151.678 77.9291 151.787 78.9535 152.313C79.9943 152.849 80.682 153.741 81.0168 154.99C81.3826 156.356 80.9762 158.059 79.7977 160.1L77.2611 164.465L83.385 162.824L83.8509 164.563ZM85.4952 155.281L87.4657 154.753C88.7408 154.412 89.918 154.503 90.9973 155.029C92.0896 155.55 92.8117 156.468 93.1637 157.782C93.5192 159.108 93.3462 160.266 92.6448 161.254C91.934 162.259 90.9411 162.932 89.6661 163.274C88.61 163.557 87.609 163.556 86.663 163.271C85.7265 162.97 84.9811 162.404 84.427 161.572L85.7203 160.294C86.0731 160.889 86.5537 161.292 87.162 161.502C87.7704 161.712 88.448 161.716 89.195 161.516C90.0579 161.285 90.6883 160.881 91.0861 160.305C91.4934 159.713 91.5935 159.031 91.3864 158.258C91.1793 157.485 90.7514 156.944 90.1026 156.635C89.4666 156.322 88.7301 156.278 87.893 156.502L84.0679 157.527L82.6912 150.38L90.0902 148.397L90.5405 150.078L84.7643 151.626L85.4952 155.281ZM102.078 154.192L95.0265 156.082L94.5917 154.459L101.643 152.57L102.078 154.192ZM113.873 152.647C114.159 153.716 114.044 154.678 113.528 155.534C113.012 156.39 112.219 157.038 111.15 157.476L111.611 159.196L110.393 159.522L109.938 157.822C108.874 158.024 107.901 157.974 107.02 157.672C106.138 157.37 105.416 156.838 104.853 156.078L106.161 154.775C106.933 155.852 108.035 156.282 109.467 156.064L108.214 151.389C107.058 151.298 106.107 151.097 105.361 150.786C104.443 150.398 103.831 149.637 103.528 148.503C103.248 147.46 103.368 146.517 103.888 145.674C104.417 144.814 105.184 144.201 106.19 143.835L105.735 142.135L106.952 141.809L107.412 143.528C109.107 143.309 110.497 143.861 111.583 145.185L110.304 146.439C109.679 145.599 108.872 145.215 107.884 145.286L109.074 149.729C109.709 149.78 110.231 149.847 110.64 149.931C111.078 150.021 111.522 150.157 111.971 150.341C112.925 150.706 113.559 151.475 113.873 152.647ZM105.305 148.027C105.433 148.503 105.681 148.865 106.051 149.111C106.43 149.341 106.991 149.501 107.733 149.592L106.661 145.593C106.102 145.826 105.702 146.161 105.46 146.598C105.215 147.023 105.164 147.499 105.305 148.027ZM109.55 151.507L110.674 155.699C111.255 155.447 111.671 155.093 111.922 154.64C112.173 154.186 112.226 153.689 112.081 153.148C111.943 152.632 111.678 152.262 111.286 152.035C110.904 151.793 110.325 151.617 109.55 151.507ZM116.548 146.961L118.519 146.433C119.794 146.091 120.971 146.183 122.05 146.708C123.143 147.23 123.865 148.147 124.217 149.461C124.572 150.788 124.399 151.945 123.698 152.934C122.987 153.939 121.994 154.612 120.719 154.954C119.663 155.236 118.662 155.236 117.716 154.951C116.779 154.649 116.034 154.083 115.48 153.251L116.773 151.973C117.126 152.569 117.607 152.972 118.215 153.181C118.823 153.391 119.501 153.396 120.248 153.196C121.111 152.964 121.741 152.561 122.139 151.985C122.546 151.393 122.646 150.71 122.439 149.937C122.232 149.165 121.804 148.624 121.156 148.314C120.52 148.002 119.783 147.957 118.946 148.182L115.121 149.207L113.744 142.059L121.143 140.077L121.594 141.758L115.817 143.305L116.548 146.961ZM135.147 149.038C134.587 150.554 133.477 151.535 131.815 151.98C130.154 152.425 128.702 152.131 127.459 151.098C126.199 150.055 125.286 148.477 124.72 146.365C124.154 144.253 124.156 142.431 124.725 140.898C125.285 139.381 126.396 138.4 128.057 137.955C129.719 137.51 131.171 137.804 132.414 138.837C133.674 139.88 134.586 141.458 135.152 143.57C135.718 145.682 135.717 147.505 135.147 149.038ZM126.517 145.884C126.966 147.558 127.609 148.773 128.446 149.529C129.284 150.284 130.25 150.516 131.344 150.222C132.439 149.929 133.16 149.246 133.508 148.173C133.868 147.096 133.824 145.72 133.375 144.046C132.926 142.372 132.277 141.159 131.427 140.406C130.586 139.638 129.618 139.4 128.523 139.694C127.429 139.987 126.707 140.67 126.36 141.743C126.013 142.817 126.065 144.197 126.517 145.884Z" fill="#ACACAC"/><defs><filter id="filter0_f_475_439" x="35" y="0.278976" width="210.957" height="230.784" filterUnits="userSpaceOnUse" color-interpolation-filters="sRGB"><feFlood flood-opacity="0" result="BackgroundImageFix"/><feBlend mode="normal" in="SourceGraphic" in2="BackgroundImageFix" result="shape"/><feGaussianBlur stdDeviation="20" result="effect1_foregroundBlur_475_439"/></filter><linearGradient id="paint0_linear_475_439" x1="0" y1="0" x2="139.453" y2="150" gradientUnits="userSpaceOnUse"><stop stop-color="#201D30"/><stop offset="1" stop-color="#474553"/></linearGradient><radialGradient id="paint1_angular_475_439" cx="0" cy="0" r="1" gradientUnits="userSpaceOnUse" gradientTransform="translate(75 75) rotate(90) scale(75)"><stop offset="0.107236" stop-color="white" stop-opacity="0.55"/><stop offset="0.340387" stop-color="white" stop-opacity="0"/><stop offset="0.596259" stop-color="white" stop-opacity="0"/><stop offset="0.736981" stop-color="white" stop-opacity="0"/><stop offset="0.903035" stop-color="white" stop-opacity="0.54"/><stop offset="0.99949" stop-color="white" stop-opacity="0.08"/></radialGradient></defs></svg>