<svg width="232" height="236" viewBox="0 0 232 236" fill="none" xmlns="http://www.w3.org/2000/svg"><g filter="url(#filter0_f_475_438)"><rect x="73.3984" y="40.2791" width="116.723" height="129.041" transform="rotate(15 73.3984 40.2791)" fill="#17141D"/></g><rect x="0.612372" y="-0.353553" width="149" height="149" rx="39.5" transform="matrix(0.965926 0.258819 0.258819 -0.965926 48.1124 155.314)" fill="url(#paint0_linear_475_438)" stroke="url(#paint1_angular_475_438)"/><path d="M86.1952 82.5444L92.0652 60.6372L97.7449 62.159C99.2234 62.5552 100.44 63.0647 101.394 63.6875C102.37 64.2971 103.025 65.1005 103.357 66.0977C103.707 67.0997 103.681 68.349 103.28 69.8456C103.039 70.7471 102.742 71.5277 102.392 72.1874C102.064 72.8339 101.632 73.3655 101.095 73.7821C100.581 74.1855 99.9312 74.4463 99.1459 74.5644L99.3125 86.0591L94.7417 84.8344L94.8861 74.2346L93.3174 73.8143L90.6578 83.7401L86.1952 82.5444ZM94.0276 71.1638L95.3258 71.5116C96.0471 71.7049 96.6464 71.7399 97.1239 71.6166C97.6015 71.4933 97.9842 71.219 98.272 70.7937C98.5828 70.3552 98.8324 69.7843 99.0208 69.0811C99.2913 68.0714 99.3074 67.2544 99.0688 66.63C98.8531 65.9925 98.2405 65.5385 97.2307 65.2679L95.7162 64.8621L94.0276 71.1638ZM101.963 86.7694L107.833 64.8622L117.38 67.4204L116.554 70.5036L111.47 69.1412L109.912 74.9561L113.833 76.0069L113 79.1171L109.078 78.0663L107.237 84.936L112.376 86.3129L111.565 89.3421L101.963 86.7694ZM116.932 90.7804L118.637 67.7572L122.505 68.7935L121.043 84.6349L127.536 70.1414L131.565 71.2212L121.53 92.0124L116.932 90.7804ZM133.473 95.5314C132.121 95.169 131.059 94.6237 130.288 93.8953C129.522 93.1489 129.037 92.217 128.834 91.0997C128.654 89.9692 128.736 88.619 129.079 87.049L133.093 87.429C132.888 88.3402 132.775 89.1216 132.755 89.7733C132.758 90.4118 132.872 90.9254 133.096 91.314C133.343 91.6895 133.701 91.94 134.17 92.0656C134.747 92.2202 135.183 92.1438 135.478 91.8363C135.791 91.5337 136.01 91.148 136.136 90.6792C136.382 89.7596 136.362 88.9329 136.076 88.1991C135.812 87.4521 135.404 86.6664 134.852 85.8421L133.109 83.259C132.481 82.3564 132.022 81.4023 131.731 80.3968C131.458 79.396 131.491 78.2646 131.829 77.0024C132.312 75.1994 133.205 73.9601 134.506 73.2847C135.831 72.5961 137.413 72.4982 139.252 72.991C140.352 73.2857 141.205 73.7076 141.812 74.2566C142.418 74.8056 142.829 75.4374 143.043 76.1519C143.28 76.8532 143.375 77.5838 143.326 78.3437C143.299 79.0903 143.21 79.8201 143.058 80.533L139.092 80.0791C139.235 79.4023 139.329 78.7994 139.374 78.2704C139.437 77.7462 139.381 77.3061 139.206 76.9499C139.049 76.5986 138.727 76.3578 138.24 76.2273C137.717 76.0872 137.276 76.1817 136.918 76.5107C136.564 76.8217 136.324 77.2116 136.198 77.6804C135.991 78.4557 135.99 79.1417 136.198 79.7384C136.428 80.3218 136.777 80.9661 137.245 81.6713L138.941 84.2129C139.648 85.2526 140.188 86.3733 140.562 87.575C140.959 88.7635 140.957 90.106 140.556 91.6025C140.28 92.6303 139.797 93.496 139.106 94.1998C138.415 94.9036 137.583 95.3764 136.61 95.6181C135.655 95.8647 134.609 95.8358 133.473 95.5314ZM141.583 97.3854L147.453 75.4782L151.915 76.6739L149.502 85.6802L153.369 86.7165L155.783 77.7102L160.245 78.906L154.375 100.813L149.913 99.6174L152.514 89.9079L148.647 88.8716L146.045 98.5811L141.583 97.3854ZM156.664 101.426L166.78 80.6569L171.729 81.9831L170.078 105.021L165.94 103.912L166.446 98.8877L162.984 97.9601L160.856 102.55L156.664 101.426ZM164.122 95.3371L166.745 96.0401L167.79 86.841L164.122 95.3371ZM172.298 105.616L178.168 83.7085L183.848 85.2303C185.327 85.6265 186.543 86.136 187.497 86.7588C188.474 87.3684 189.128 88.1718 189.46 89.169C189.81 90.171 189.784 91.4203 189.383 92.9169C189.142 93.8184 188.846 94.599 188.495 95.2587C188.167 95.9052 187.735 96.4368 187.198 96.8534C186.684 97.2568 186.034 97.5175 185.249 97.6356L185.416 109.13L180.845 107.906L180.989 97.3059L179.421 96.8856L176.761 106.811L172.298 105.616ZM180.131 94.2351L181.429 94.5829C182.15 94.7762 182.75 94.8112 183.227 94.6879C183.705 94.5646 184.087 94.2903 184.375 93.865C184.686 93.4265 184.936 92.8556 185.124 92.1524C185.395 91.1427 185.411 90.3257 185.172 89.7013C184.956 89.0638 184.344 88.6097 183.334 88.3392L181.819 87.9334L180.131 94.2351ZM188.066 109.841L193.936 87.9335L203.484 90.4917L202.658 93.5749L197.573 92.2125L196.015 98.0273L199.936 99.0782L199.103 102.188L195.181 101.138L193.341 108.007L198.479 109.384L197.668 112.413L188.066 109.841Z" fill="white"/><path d="M98.1867 116.091L99.5584 110.972L101.239 111.422L98.651 121.081L96.9702 120.631L97.3429 119.24C96.3799 120.155 95.19 120.423 93.7733 120.044C92.64 119.74 91.8269 119.142 91.3341 118.251C90.8448 117.347 90.7641 116.283 91.0919 115.06L92.681 109.129L94.3618 109.579L92.7985 115.414C92.5914 116.186 92.6417 116.849 92.9494 117.4C93.2571 117.952 93.7844 118.328 94.5314 118.528C95.3943 118.759 96.1476 118.678 96.7914 118.285C97.4386 117.879 97.9037 117.147 98.1867 116.091ZM109.197 113.285C110.549 113.648 111.569 114.452 112.257 115.699C112.944 116.946 113.099 118.272 112.723 119.676C112.344 121.092 111.545 122.169 110.326 122.905C109.123 123.632 107.84 123.813 106.474 123.447C104.877 123.019 103.831 122.055 103.336 120.556L101.855 126.081L100.174 125.631L103.798 112.108L105.479 112.558L105.033 114.22C106.212 113.169 107.6 112.857 109.197 113.285ZM106.697 121.767C107.663 122.026 108.562 121.915 109.395 121.434C110.235 120.928 110.784 120.191 111.043 119.225C111.305 118.247 111.196 117.341 110.715 116.508C110.237 115.662 109.516 115.11 108.55 114.851C107.571 114.589 106.663 114.705 105.827 115.198C104.994 115.679 104.447 116.409 104.185 117.388C103.926 118.354 104.033 119.266 104.507 120.125C104.988 120.957 105.718 121.505 106.697 121.767ZM126.107 118.086L125.672 119.708L123.103 119.02L121.7 124.255C121.573 124.732 121.571 125.097 121.696 125.352C121.838 125.596 122.1 125.777 122.483 125.894C122.869 125.997 123.349 126.112 123.923 126.238L123.519 127.745C121.986 127.541 120.937 127.129 120.372 126.508C119.819 125.891 119.702 124.99 120.02 123.805L121.422 118.569L119.51 118.057L119.945 116.434L121.857 116.947L122.447 114.744L124.263 114.692L123.538 117.397L126.107 118.086ZM133.497 129.114C132.256 129.83 130.92 129.997 129.491 129.614C128.061 129.231 126.988 128.419 126.272 127.178C125.555 125.937 125.388 124.602 125.771 123.172C126.155 121.742 126.967 120.669 128.208 119.953C129.449 119.236 130.784 119.07 132.214 119.453C133.643 119.836 134.716 120.648 135.433 121.889C136.159 123.146 136.332 124.483 135.952 125.9C135.573 127.317 134.754 128.388 133.497 129.114ZM129.931 127.972C130.897 128.231 131.796 128.12 132.629 127.639C133.462 127.158 134.009 126.428 134.272 125.45C134.534 124.471 134.425 123.565 133.944 122.732C133.463 121.899 132.74 121.353 131.774 121.095C130.821 120.839 129.928 120.952 129.095 121.433C128.262 121.914 127.714 122.644 127.452 123.622C127.19 124.601 127.299 125.507 127.78 126.34C128.261 127.173 128.978 127.717 129.931 127.972ZM145.65 124.834L147.621 125.362C148.896 125.703 149.869 126.371 150.541 127.366C151.226 128.364 151.393 129.52 151.041 130.833C150.685 132.16 149.957 133.076 148.855 133.581C147.737 134.096 146.541 134.183 145.266 133.841C144.21 133.558 143.343 133.057 142.666 132.337C142.006 131.608 141.644 130.745 141.58 129.747L143.339 129.287C143.346 129.979 143.561 130.568 143.983 131.054C144.405 131.54 144.99 131.883 145.737 132.083C146.6 132.314 147.347 132.28 147.98 131.98C148.629 131.671 149.057 131.13 149.264 130.357C149.471 129.584 149.371 128.902 148.963 128.309C148.569 127.721 147.953 127.314 147.116 127.09L143.291 126.065L145.672 119.187L153.071 121.169L152.621 122.85L146.845 121.302L145.65 124.834ZM160.719 135.932C159.476 136.965 158.023 137.259 156.362 136.814C154.701 136.369 153.59 135.388 153.03 133.872C152.461 132.339 152.459 130.516 153.025 128.404C153.591 126.292 154.504 124.714 155.763 123.671C157.006 122.638 158.459 122.344 160.12 122.789C161.781 123.234 162.892 124.215 163.452 125.732C164.021 127.265 164.023 129.087 163.457 131.199C162.891 133.311 161.978 134.889 160.719 135.932ZM154.822 128.885C154.373 130.56 154.322 131.933 154.67 133.007C155.017 134.08 155.738 134.763 156.833 135.056C157.928 135.35 158.894 135.118 159.731 134.363C160.582 133.611 161.231 132.397 161.68 130.723C162.128 129.049 162.173 127.673 161.812 126.597C161.468 125.511 160.749 124.821 159.654 124.528C158.559 124.234 157.593 124.465 156.756 125.221C155.919 125.977 155.274 127.198 154.822 128.885ZM168.336 131.409C167.46 131.174 166.81 130.69 166.386 129.955C165.962 129.22 165.862 128.434 166.086 127.597C166.307 126.773 166.785 126.148 167.52 125.724C168.271 125.29 169.078 125.189 169.941 125.42C170.816 125.655 171.466 126.14 171.891 126.875C172.315 127.61 172.415 128.396 172.191 129.233C171.966 130.07 171.487 130.7 170.752 131.125C170.03 131.552 169.225 131.647 168.336 131.409ZM167.593 128.001C167.472 128.451 167.512 128.869 167.712 129.254C167.929 129.63 168.263 129.878 168.714 129.999C169.165 130.12 169.573 130.063 169.939 129.83C170.318 129.601 170.566 129.267 170.684 128.829C170.801 128.391 170.751 127.984 170.535 127.609C170.334 127.224 170.008 126.971 169.558 126.85C169.107 126.729 168.692 126.784 168.313 127.013C167.95 127.234 167.71 127.563 167.593 128.001ZM165.4 137.497L164.618 136.707L176.293 129.069L177.1 129.844L165.4 137.497ZM175.877 138.813C175.652 139.65 175.173 140.281 174.438 140.705C173.703 141.129 172.898 141.224 172.022 140.99C171.146 140.755 170.496 140.27 170.072 139.535C169.648 138.8 169.548 138.014 169.772 137.177C169.996 136.34 170.476 135.71 171.211 135.285C171.946 134.861 172.751 134.766 173.627 135.001C174.502 135.236 175.152 135.72 175.577 136.455C176.001 137.19 176.101 137.976 175.877 138.813ZM171.404 138.815C171.62 139.191 171.954 139.439 172.405 139.56C172.843 139.677 173.25 139.628 173.625 139.411C174.004 139.181 174.252 138.847 174.37 138.409C174.487 137.971 174.437 137.565 174.221 137.189C174.02 136.804 173.694 136.551 173.244 136.43C172.793 136.31 172.378 136.364 171.999 136.594C171.636 136.814 171.396 137.143 171.279 137.581C171.162 138.019 171.203 138.43 171.404 138.815Z" fill="#ACACAC"/><defs><filter id="filter0_f_475_438" x="0" y="0.279053" width="226.145" height="234.854" filterUnits="userSpaceOnUse" color-interpolation-filters="sRGB"><feFlood flood-opacity="0" result="BackgroundImageFix"/><feBlend mode="normal" in="SourceGraphic" in2="BackgroundImageFix" result="shape"/><feGaussianBlur stdDeviation="20" result="effect1_foregroundBlur_475_438"/></filter><linearGradient id="paint0_linear_475_438" x1="0" y1="0" x2="139.453" y2="150" gradientUnits="userSpaceOnUse"><stop stop-color="#201D30"/><stop offset="1" stop-color="#474553"/></linearGradient><radialGradient id="paint1_angular_475_438" cx="0" cy="0" r="1" gradientUnits="userSpaceOnUse" gradientTransform="translate(75 75) rotate(90) scale(75)"><stop offset="0.107236" stop-color="white" stop-opacity="0.55"/><stop offset="0.340387" stop-color="white" stop-opacity="0"/><stop offset="0.596259" stop-color="white" stop-opacity="0"/><stop offset="0.736981" stop-color="white" stop-opacity="0"/><stop offset="0.903035" stop-color="white" stop-opacity="0.54"/><stop offset="0.99949" stop-color="white" stop-opacity="0.08"/></radialGradient></defs></svg>