<svg width="232" height="235" viewBox="0 0 232 235" fill="none" xmlns="http://www.w3.org/2000/svg"><g filter="url(#filter0_f_223_1268)"><rect x="73.3984" y="40" width="116.723" height="129.041" transform="rotate(15 73.3984 40)" fill="#17141D"/></g><rect x="0.612372" y="-0.353553" width="149" height="149" rx="39.5" transform="matrix(0.965926 0.258819 0.258819 -0.965926 48.1124 155.035)" fill="url(#paint0_linear_223_1268)" stroke="url(#paint1_angular_223_1268)"/><path d="M86.1933 82.2653L92.0633 60.3581L97.7429 61.88C99.2214 62.2761 100.438 62.7856 101.392 63.4084C102.369 64.018 103.023 64.8214 103.355 65.8186C103.705 66.8207 103.679 68.0699 103.278 69.5665C103.037 70.468 102.74 71.2486 102.39 71.9083C102.062 72.5549 101.63 73.0864 101.093 73.503C100.579 73.9064 99.9293 74.1672 99.1439 74.2853L99.3106 85.7801L94.7398 84.5553L94.8841 73.9555L93.3155 73.5352L90.6559 83.461L86.1933 82.2653ZM94.0257 70.8847L95.3239 71.2325C96.0451 71.4258 96.6445 71.4608 97.122 71.3375C97.5995 71.2142 97.9822 70.9399 98.2701 70.5146C98.5808 70.0761 98.8304 69.5052 99.0188 68.8021C99.2894 67.7923 99.3054 66.9753 99.0669 66.351C98.8512 65.7134 98.2385 65.2594 97.2288 64.9888L95.7142 64.583L94.0257 70.8847ZM101.961 86.4903L107.831 64.5831L117.378 67.1413L116.552 70.2245L111.468 68.8621L109.91 74.677L113.831 75.7278L112.998 78.8381L109.076 77.7873L107.235 84.6569L112.374 86.0338L111.563 89.063L101.961 86.4903ZM116.931 90.5013L118.635 67.4781L122.503 68.5144L121.041 84.3558L127.534 69.8623L131.563 70.9421L121.528 91.7333L116.931 90.5013ZM133.471 95.2523C132.119 94.89 131.057 94.3446 130.286 93.6162C129.52 92.8698 129.035 91.9379 128.832 90.8206C128.652 89.6901 128.734 88.3399 129.077 86.7699L133.092 87.1499C132.886 88.0611 132.773 88.8425 132.753 89.4942C132.756 90.1327 132.87 90.6463 133.094 91.0349C133.341 91.4104 133.699 91.6609 134.168 91.7865C134.745 91.9411 135.181 91.8647 135.476 91.5572C135.789 91.2546 136.008 90.8689 136.134 90.4001C136.38 89.4805 136.36 88.6538 136.074 87.92C135.81 87.173 135.402 86.3873 134.85 85.563L133.107 82.9799C132.48 82.0773 132.02 81.1233 131.729 80.1177C131.456 79.1169 131.489 77.9855 131.827 76.7233C132.31 74.9203 133.203 73.681 134.504 73.0056C135.829 72.317 137.411 72.2191 139.25 72.7119C140.35 73.0066 141.203 73.4285 141.81 73.9775C142.416 74.5266 142.827 75.1583 143.041 75.8728C143.278 76.5741 143.373 77.3047 143.324 78.0646C143.297 78.8113 143.208 79.541 143.056 80.2539L139.09 79.8C139.233 79.1232 139.327 78.5203 139.372 77.9913C139.435 77.4671 139.379 77.027 139.204 76.6708C139.047 76.3196 138.725 76.0787 138.238 75.9482C137.715 75.8081 137.274 75.9026 136.916 76.2316C136.562 76.5426 136.322 76.9325 136.196 77.4013C135.989 78.1766 135.988 78.8626 136.196 79.4593C136.426 80.0427 136.775 80.6871 137.243 81.3922L138.939 83.9338C139.646 84.9735 140.186 86.0942 140.56 87.2959C140.957 88.4844 140.955 89.8269 140.554 91.3234C140.278 92.3512 139.795 93.2169 139.104 93.9207C138.413 94.6245 137.581 95.0973 136.608 95.339C135.653 95.5856 134.607 95.5567 133.471 95.2523ZM141.581 97.1063L147.451 75.1991L151.913 76.3948L149.5 85.4011L153.368 86.4374L155.781 77.4311L160.243 78.6269L154.373 100.534L149.911 99.3383L152.512 89.6289L148.645 88.5925L146.043 98.302L141.581 97.1063ZM156.662 101.147L166.778 80.3778L171.727 81.704L170.076 104.742L165.938 103.633L166.444 98.6086L162.982 97.681L160.854 102.271L156.662 101.147ZM164.12 95.0581L166.743 95.761L167.788 86.5619L164.12 95.0581ZM172.297 105.337L178.167 83.4294L183.846 84.9512C185.325 85.3474 186.541 85.8569 187.495 86.4797C188.472 87.0893 189.126 87.8927 189.458 88.8899C189.808 89.8919 189.782 91.1412 189.381 92.6378C189.14 93.5393 188.844 94.3199 188.493 94.9796C188.165 95.6262 187.733 96.1577 187.196 96.5743C186.682 96.9777 186.033 97.2385 185.247 97.3566L185.414 108.851L180.843 107.627L180.987 97.0268L179.419 96.6065L176.759 106.532L172.297 105.337ZM180.129 93.956L181.427 94.3038C182.148 94.4971 182.748 94.5321 183.225 94.4088C183.703 94.2855 184.085 94.0112 184.373 93.5859C184.684 93.1474 184.934 92.5765 185.122 91.8733C185.393 90.8636 185.409 90.0466 185.17 89.4223C184.954 88.7847 184.342 88.3307 183.332 88.0601L181.817 87.6543L180.129 93.956ZM188.064 109.562L193.935 87.6544L203.482 90.2126L202.656 93.2958L197.571 91.9334L196.013 97.7483L199.935 98.7991L199.101 101.909L195.179 100.859L193.339 107.728L198.477 109.105L197.666 112.134L188.064 109.562Z" fill="white"/><path d="M113.018 114.3L110.86 122.356L112.193 122.713L111.069 126.905L109.408 126.46L110.101 123.871L102.857 121.93L102.163 124.519L100.502 124.073L101.625 119.881L102.804 120.197C103.65 119.513 104.278 118.404 104.689 116.872L105.89 112.39L113.018 114.3ZM104.716 120.709L109.198 121.91L110.937 115.419L107.132 114.4L106.35 117.317C105.97 118.733 105.426 119.864 104.716 120.709ZM121.676 125.668C120.435 126.384 119.099 126.551 117.67 126.168C116.24 125.785 115.167 124.973 114.451 123.732C113.734 122.491 113.567 121.155 113.95 119.726C114.333 118.296 115.145 117.223 116.386 116.507C117.628 115.79 118.963 115.623 120.392 116.006C121.822 116.39 122.895 117.202 123.612 118.443C124.338 119.7 124.511 121.037 124.131 122.454C123.752 123.871 122.933 124.942 121.676 125.668ZM118.11 124.526C119.076 124.785 119.975 124.674 120.808 124.193C121.641 123.712 122.188 122.982 122.45 122.003C122.713 121.025 122.603 120.119 122.123 119.286C121.642 118.453 120.918 117.907 119.952 117.649C118.999 117.393 118.106 117.506 117.274 117.987C116.441 118.468 115.893 119.197 115.631 120.176C115.369 121.155 115.478 122.061 115.959 122.894C116.44 123.726 117.157 124.271 118.11 124.526ZM133.829 121.387L135.799 121.915C137.074 122.257 138.048 122.925 138.72 123.92C139.405 124.918 139.572 126.073 139.22 127.387C138.864 128.714 138.136 129.63 137.034 130.135C135.916 130.65 134.719 130.737 133.444 130.395C132.388 130.112 131.522 129.611 130.845 128.891C130.185 128.162 129.822 127.299 129.758 126.301L131.517 125.841C131.525 126.533 131.74 127.122 132.162 127.608C132.584 128.094 133.169 128.437 133.916 128.637C134.778 128.868 135.526 128.834 136.159 128.534C136.807 128.225 137.235 127.684 137.442 126.911C137.649 126.138 137.549 125.456 137.142 124.863C136.748 124.275 136.132 123.868 135.295 123.644L131.47 122.619L133.851 115.741L141.25 117.723L140.8 119.404L135.023 117.856L133.829 121.387ZM148.898 132.486C147.655 133.519 146.202 133.813 144.541 133.368C142.879 132.923 141.769 131.942 141.209 130.426C140.64 128.893 140.638 127.07 141.204 124.958C141.77 122.846 142.683 121.268 143.942 120.225C145.185 119.192 146.637 118.898 148.299 119.343C149.96 119.788 151.071 120.769 151.631 122.286C152.2 123.818 152.202 125.641 151.636 127.753C151.07 129.865 150.157 131.443 148.898 132.486ZM143 125.439C142.552 127.114 142.501 128.487 142.849 129.56C143.196 130.634 143.917 131.317 145.012 131.61C146.107 131.903 147.073 131.672 147.91 130.917C148.76 130.164 149.41 128.951 149.859 127.277C150.307 125.603 150.351 124.227 149.991 123.151C149.647 122.065 148.928 121.375 147.833 121.082C146.738 120.788 145.772 121.019 144.935 121.775C144.097 122.531 143.453 123.752 143 125.439ZM156.515 127.963C155.639 127.728 154.989 127.244 154.565 126.509C154.14 125.774 154.041 124.988 154.265 124.151C154.486 123.327 154.964 122.702 155.698 122.278C156.45 121.844 157.257 121.743 158.119 121.974C158.995 122.209 159.645 122.694 160.07 123.429C160.494 124.163 160.594 124.949 160.369 125.787C160.145 126.624 159.666 127.254 158.931 127.679C158.209 128.106 157.403 128.201 156.515 127.963ZM155.772 124.555C155.651 125.005 155.691 125.423 155.891 125.808C156.108 126.184 156.442 126.432 156.893 126.553C157.343 126.674 157.752 126.617 158.118 126.384C158.497 126.154 158.745 125.821 158.863 125.383C158.98 124.945 158.93 124.538 158.713 124.163C158.513 123.778 158.187 123.525 157.736 123.404C157.286 123.283 156.871 123.338 156.492 123.567C156.129 123.788 155.889 124.117 155.772 124.555ZM153.579 134.051L152.797 133.261L164.472 125.623L165.279 126.398L153.579 134.051ZM164.055 135.367C163.831 136.204 163.352 136.835 162.617 137.259C161.882 137.683 161.077 137.778 160.201 137.544C159.325 137.309 158.675 136.824 158.251 136.089C157.826 135.354 157.726 134.568 157.951 133.731C158.175 132.894 158.655 132.263 159.39 131.839C160.124 131.415 160.93 131.32 161.805 131.555C162.681 131.789 163.331 132.274 163.756 133.009C164.18 133.744 164.28 134.53 164.055 135.367ZM159.582 135.369C159.799 135.745 160.133 135.993 160.584 136.114C161.022 136.231 161.428 136.182 161.804 135.965C162.183 135.735 162.431 135.401 162.549 134.963C162.666 134.525 162.616 134.119 162.399 133.743C162.199 133.358 161.873 133.105 161.422 132.984C160.972 132.864 160.557 132.918 160.178 133.148C159.815 133.368 159.575 133.697 159.458 134.135C159.34 134.573 159.382 134.984 159.582 135.369Z" fill="#ACACAC"/><defs><filter id="filter0_f_223_1268" x="0" y="0" width="226.145" height="234.854" filterUnits="userSpaceOnUse" color-interpolation-filters="sRGB"><feFlood flood-opacity="0" result="BackgroundImageFix"/><feBlend mode="normal" in="SourceGraphic" in2="BackgroundImageFix" result="shape"/><feGaussianBlur stdDeviation="20" result="effect1_foregroundBlur_223_1268"/></filter><linearGradient id="paint0_linear_223_1268" x1="0" y1="0" x2="139.453" y2="150" gradientUnits="userSpaceOnUse"><stop stop-color="#201D30"/><stop offset="1" stop-color="#474553"/></linearGradient><radialGradient id="paint1_angular_223_1268" cx="0" cy="0" r="1" gradientUnits="userSpaceOnUse" gradientTransform="translate(75 75) rotate(90) scale(75)"><stop offset="0.107236" stop-color="white" stop-opacity="0.55"/><stop offset="0.340387" stop-color="white" stop-opacity="0"/><stop offset="0.596259" stop-color="white" stop-opacity="0"/><stop offset="0.736981" stop-color="white" stop-opacity="0"/><stop offset="0.903035" stop-color="white" stop-opacity="0.54"/><stop offset="0.99949" stop-color="white" stop-opacity="0.08"/></radialGradient></defs></svg>