<svg width="127" height="22" viewBox="0 0 127 22" fill="none" xmlns="http://www.w3.org/2000/svg"><path d="M27.878 19.216C26.87 19.216 26.072 19.006 25.484 18.586C24.908 18.166 24.494 17.578 24.242 16.822C24.002 16.054 23.882 15.172 23.882 14.176V9.28C23.882 8.248 24.014 7.354 24.278 6.598C24.542 5.842 24.992 5.26 25.628 4.852C26.276 4.432 27.152 4.222 28.256 4.222C29.336 4.222 30.182 4.402 30.794 4.762C31.418 5.122 31.862 5.62 32.126 6.256C32.39 6.892 32.522 7.636 32.522 8.488V9.424H29.372V8.236C29.372 7.924 29.348 7.636 29.3 7.372C29.264 7.108 29.168 6.898 29.012 6.742C28.868 6.574 28.628 6.49 28.292 6.49C27.944 6.49 27.692 6.586 27.536 6.778C27.38 6.958 27.278 7.186 27.23 7.462C27.194 7.738 27.176 8.026 27.176 8.326V15.076C27.176 15.4 27.206 15.706 27.266 15.994C27.338 16.27 27.458 16.498 27.626 16.678C27.806 16.846 28.058 16.93 28.382 16.93C28.718 16.93 28.976 16.84 29.156 16.66C29.336 16.48 29.462 16.246 29.534 15.958C29.606 15.67 29.642 15.364 29.642 15.04V13.33H28.328V11.44H32.54V19H30.416L30.236 17.794C30.044 18.202 29.762 18.544 29.39 18.82C29.018 19.084 28.514 19.216 27.878 19.216ZM33.8546 19L36.6086 4.42H40.2806L42.9986 19H40.0286L39.5426 15.922H37.4006L36.8966 19H33.8546ZM37.6886 13.996H39.2366L38.4626 8.308L37.6886 13.996ZM44.4166 19L44.6686 4.42H48.1246L49.7266 12.898L51.4546 4.42H54.7846L55.0366 19H52.7506L52.4806 9.298L50.7886 19H48.7546L46.9546 9.226L46.7386 19H44.4166ZM57.1445 19V4.42H63.6965V6.616H60.3665V10.234H62.9045V12.466H60.3665V16.822H63.7325V19H57.1445ZM65.1952 19V4.42H68.9932C69.6172 4.42 70.2052 4.468 70.7572 4.564C71.3212 4.66 71.8192 4.846 72.2512 5.122C72.6832 5.386 73.0192 5.77 73.2592 6.274C73.5112 6.766 73.6372 7.42 73.6372 8.236C73.6372 8.824 73.5472 9.322 73.3672 9.73C73.1992 10.126 72.9532 10.444 72.6292 10.684C72.3172 10.924 71.9392 11.086 71.4952 11.17C72.0592 11.242 72.5332 11.428 72.9172 11.728C73.3012 12.016 73.5892 12.406 73.7812 12.898C73.9852 13.39 74.0872 13.984 74.0872 14.68C74.0872 15.436 73.9852 16.09 73.7812 16.642C73.5892 17.182 73.3072 17.626 72.9352 17.974C72.5632 18.322 72.1012 18.58 71.5492 18.748C71.0092 18.916 70.3852 19 69.6772 19H65.1952ZM68.4172 16.75H69.1012C69.8092 16.75 70.2952 16.57 70.5592 16.21C70.8352 15.85 70.9732 15.322 70.9732 14.626C70.9732 14.074 70.9132 13.636 70.7932 13.312C70.6732 12.988 70.4752 12.754 70.1992 12.61C69.9232 12.454 69.5512 12.376 69.0832 12.376H68.4172V16.75ZM68.4172 10.252H69.0472C69.5392 10.252 69.9112 10.18 70.1632 10.036C70.4152 9.88 70.5832 9.658 70.6672 9.37C70.7632 9.082 70.8112 8.734 70.8112 8.326C70.8112 7.942 70.7392 7.624 70.5952 7.372C70.4632 7.108 70.2592 6.91 69.9832 6.778C69.7192 6.646 69.3832 6.58 68.9752 6.58H68.4172V10.252ZM75.7773 19V4.42H82.3293V6.616H78.9993V10.234H81.5373V12.466H78.9993V16.822H82.3653V19H75.7773ZM85.142 19V6.814H82.946V4.42H90.56V6.814H88.382V19H85.142ZM91.5917 19V16.228H94.3637V19H91.5917ZM96.2382 19V4.42H101.134C102.01 4.42 102.73 4.588 103.294 4.924C103.858 5.248 104.278 5.728 104.554 6.364C104.83 6.988 104.968 7.75 104.968 8.65C104.968 9.778 104.782 10.642 104.41 11.242C104.038 11.83 103.534 12.238 102.898 12.466C102.262 12.694 101.548 12.808 100.756 12.808H99.4602V19H96.2382ZM99.4602 10.558H100.54C100.936 10.558 101.236 10.486 101.44 10.342C101.644 10.198 101.776 9.982 101.836 9.694C101.908 9.406 101.944 9.04 101.944 8.596C101.944 8.224 101.914 7.9 101.854 7.624C101.806 7.336 101.68 7.108 101.476 6.94C101.272 6.772 100.954 6.688 100.522 6.688H99.4602V10.558ZM106.521 19V4.42H110.535C111.519 4.42 112.371 4.528 113.091 4.744C113.811 4.96 114.369 5.35 114.765 5.914C115.173 6.466 115.377 7.252 115.377 8.272C115.377 8.872 115.329 9.406 115.233 9.874C115.137 10.342 114.957 10.75 114.693 11.098C114.441 11.434 114.075 11.716 113.595 11.944L115.593 19H112.263L110.661 12.466H109.743V19H106.521ZM109.743 10.612H110.643C111.099 10.612 111.453 10.534 111.705 10.378C111.957 10.21 112.131 9.976 112.227 9.676C112.335 9.364 112.389 8.992 112.389 8.56C112.389 7.936 112.275 7.45 112.047 7.102C111.819 6.754 111.399 6.58 110.787 6.58H109.743V10.612ZM121.35 19.216C120.258 19.216 119.394 19.024 118.758 18.64C118.122 18.256 117.666 17.704 117.39 16.984C117.114 16.264 116.976 15.406 116.976 14.41V8.992C116.976 7.984 117.114 7.126 117.39 6.418C117.666 5.71 118.122 5.17 118.758 4.798C119.394 4.414 120.258 4.222 121.35 4.222C122.454 4.222 123.324 4.414 123.96 4.798C124.608 5.17 125.07 5.71 125.346 6.418C125.622 7.126 125.76 7.984 125.76 8.992V14.41C125.76 15.406 125.622 16.264 125.346 16.984C125.07 17.704 124.608 18.256 123.96 18.64C123.324 19.024 122.454 19.216 121.35 19.216ZM121.35 16.93C121.686 16.93 121.932 16.846 122.088 16.678C122.244 16.51 122.346 16.294 122.394 16.03C122.442 15.766 122.466 15.496 122.466 15.22V8.2C122.466 7.912 122.442 7.642 122.394 7.39C122.346 7.126 122.244 6.91 122.088 6.742C121.932 6.574 121.686 6.49 121.35 6.49C121.038 6.49 120.804 6.574 120.648 6.742C120.492 6.91 120.39 7.126 120.342 7.39C120.294 7.642 120.27 7.912 120.27 8.2V15.22C120.27 15.496 120.288 15.766 120.324 16.03C120.372 16.294 120.468 16.51 120.612 16.678C120.768 16.846 121.014 16.93 121.35 16.93Z" fill="white"/><circle cx="11.5" cy="7.5" r="1.5" fill="#FFD40A"/><circle cx="6.5" cy="16.5" r="1.5" fill="#930AFF"/><path d="M12.3235 4.12122L2.18131 6.83882C1.38442 7.05235 0.907125 7.87905 1.12065 8.67594L3.83825 18.8182C4.05178 19.615 4.87848 20.0923 5.67537 19.8788L15.8176 17.1612C16.6145 16.9477 17.0918 16.121 16.8782 15.3241L14.1606 5.18188C13.9471 4.38499 13.1204 3.9077 12.3235 4.12122ZM6.90414 17.2202C6.30285 17.3813 5.68741 17.026 5.5263 16.4247C5.36518 15.8234 5.7205 15.208 6.32179 15.0469C6.92308 14.8858 7.53852 15.2411 7.69963 15.8424C7.86075 16.4437 7.50542 17.0591 6.90414 17.2202ZM5.15711 10.7002C4.55582 10.8613 3.94038 10.506 3.77927 9.90471C3.61815 9.30342 3.97348 8.68798 4.57476 8.52687C5.17605 8.36575 5.79149 8.72108 5.9526 9.32236C6.11372 9.92365 5.7584 10.5391 5.15711 10.7002ZM9.29062 13.0867C8.68933 13.2478 8.0739 12.8925 7.91278 12.2912C7.75167 11.6899 8.10699 11.0745 8.70828 10.9134C9.30957 10.7522 9.925 11.1076 10.0861 11.7089C10.2472 12.3101 9.89191 12.9256 9.29062 13.0867ZM13.4241 15.4732C12.8228 15.6343 12.2074 15.279 12.0463 14.6777C11.8852 14.0764 12.2405 13.461 12.8418 13.2998C13.4431 13.1387 14.0585 13.494 14.2196 14.0953C14.3807 14.6966 14.0254 15.3121 13.4241 15.4732ZM11.6771 8.95317C11.0758 9.11429 10.4604 8.75897 10.2993 8.15768C10.1382 7.55639 10.4935 6.94096 11.0948 6.77984C11.6961 6.61873 12.3115 6.97405 12.4726 7.57534C12.6337 8.17662 12.2784 8.79206 11.6771 8.95317Z" fill="white"/></svg>